<?xml version="1.0" encoding="utf-8" ?>
<svg baseProfile="full" height="174" version="1.1" width="360" xmlns="http://www.w3.org/2000/svg" xmlns:ev="http://www.w3.org/2001/xml-events" xmlns:xlink="http://www.w3.org/1999/xlink"><defs /><polygon fill="#ffffff" points="0.0,1.0 0.0,108.0 92.0,108.0 93.0,109.0 97.0,109.0 98.0,110.0 99.0,110.0 100.0,111.0 101.0,111.0 103.0,113.0 104.0,113.0 159.0,168.0 160.0,168.0 161.0,169.0 162.0,169.0 164.0,171.0 166.0,171.0 167.0,172.0 170.0,172.0 171.0,173.0 316.0,173.0 317.0,172.0 320.0,172.0 321.0,171.0 322.0,171.0 323.0,170.0 324.0,170.0 358.0,136.0 358.0,135.0 359.0,134.0 359.0,126.0 358.0,125.0 358.0,124.0 357.0,123.0 357.0,122.0 255.0,20.0 253.0,20.0 224.0,49.0 224.0,50.0 303.0,129.0 302.0,130.0 186.0,130.0 185.0,129.0 183.0,129.0 182.0,128.0 181.0,128.0 180.0,127.0 179.0,127.0 125.0,73.0 124.0,73.0 121.0,70.0 120.0,70.0 119.0,69.0 118.0,69.0 117.0,68.0 116.0,68.0 115.0,67.0 113.0,67.0 112.0,66.0 44.0,66.0 42.0,64.0 43.0,63.0 43.0,46.0 42.0,45.0 43.0,44.0 115.0,44.0 116.0,45.0 119.0,45.0 120.0,46.0 122.0,46.0 123.0,47.0 125.0,47.0 126.0,48.0 127.0,48.0 128.0,49.0 129.0,49.0 130.0,50.0 131.0,50.0 134.0,53.0 135.0,53.0 177.0,95.0 178.0,95.0 208.0,65.0 164.0,21.0 163.0,21.0 159.0,17.0 158.0,17.0 156.0,15.0 155.0,15.0 154.0,14.0 153.0,14.0 152.0,13.0 151.0,13.0 149.0,11.0 148.0,11.0 147.0,10.0 146.0,10.0 145.0,9.0 144.0,9.0 143.0,8.0 141.0,8.0 140.0,7.0 139.0,7.0 138.0,6.0 136.0,6.0 135.0,5.0 132.0,5.0 131.0,4.0 129.0,4.0 128.0,3.0 124.0,3.0 123.0,2.0 118.0,2.0 117.0,1.0" /></svg>